<svg width="24" height="24" viewBox="0 0 24 24" fill="none" xmlns="http://www.w3.org/2000/svg">
<path fill-rule="evenodd" clip-rule="evenodd" d="M18.6997 12C18.6997 12.3866 18.3863 12.7 17.9997 12.7L5.99971 12.7C5.61311 12.7 5.29971 12.3866 5.29971 12C5.29971 11.6134 5.61311 11.3 5.99971 11.3L17.9997 11.3C18.3863 11.3 18.6997 11.6134 18.6997 12Z" fill="#222628"/>
<path fill-rule="evenodd" clip-rule="evenodd" d="M11.9997 5.29999C12.3863 5.29999 12.6997 5.61339 12.6997 5.99999V18C12.6997 18.3866 12.3863 18.7 11.9997 18.7C11.6131 18.7 11.2997 18.3866 11.2997 18V5.99999C11.2997 5.61339 11.6131 5.29999 11.9997 5.29999Z" fill="#222628"/>
</svg>
