<svg width="24" height="14" viewBox="0 0 24 14" fill="none" xmlns="http://www.w3.org/2000/svg">
<mask id="path-1-inside-1_201_608" fill="white">
<path d="M22.497 6.22075V1.17579C22.497 0.567536 22.0021 0.0727234 21.3939 0.0727234H2.60616C1.99791 0.0727234 1.50309 0.567536 1.50309 1.17579V6.22075C0.306094 6.8118 0 7.42774 0 7.90249V13.1999C0 13.601 0.32625 13.9272 0.727312 13.9272H1.54655C1.89202 13.9272 2.19197 13.6813 2.25975 13.3426L2.45428 12.37C2.4915 12.1837 2.65645 12.0485 2.84644 12.0485H21.1536C21.3435 12.0485 21.5085 12.1837 21.5457 12.37L21.7402 13.3426C21.808 13.6814 22.108 13.9273 22.4535 13.9273H23.2727C23.6738 13.9273 24 13.601 24 13.2V7.90249C24 7.42774 23.6939 6.8118 22.497 6.22075ZM2.20617 1.17579C2.20617 0.955239 2.38561 0.775848 2.60611 0.775848H21.3939C21.6144 0.775848 21.7938 0.955286 21.7938 1.17579V5.91743C21.3807 5.76068 20.8945 5.60786 20.3235 5.46236C20.2149 5.43471 20.1041 5.4078 19.9921 5.38132C20.1523 5.14263 20.2424 4.85815 20.2424 4.55758V3.43029C20.2424 2.61485 19.579 1.95147 18.7636 1.95147H13.1273C12.6759 1.95147 12.2715 2.15491 12 2.47465C11.7285 2.15491 11.3241 1.95147 10.8727 1.95147H5.23636C4.42092 1.95147 3.75755 2.61489 3.75755 3.43029V4.55758C3.75755 4.85636 3.84792 5.1416 4.00856 5.38113C3.89634 5.40761 3.7853 5.43457 3.67645 5.46232C3.10547 5.60786 2.61933 5.76068 2.20617 5.91738V1.17579ZM19.5393 3.43033V4.55763C19.5393 4.82289 19.4061 5.06463 19.1872 5.20718C17.226 4.81975 14.8543 4.60197 12.3515 4.58327V3.43033H12.3516C12.3516 3.0026 12.6995 2.65464 13.1273 2.65464H18.7636C19.1913 2.65464 19.5393 3.0026 19.5393 3.43033ZM11.6484 3.43029V4.58322C9.14555 4.60193 6.77381 4.81975 4.81256 5.20718C4.59417 5.06444 4.46067 4.82088 4.46067 4.55758V3.43029C4.46067 3.00255 4.80862 2.6546 5.23636 2.6546H10.8727C11.3004 2.6546 11.6484 3.0026 11.6484 3.43029ZM23.2969 13.2C23.2969 13.2133 23.286 13.2242 23.2727 13.2242H22.4535C22.442 13.2242 22.432 13.216 22.4297 13.2047L22.2352 12.2321C22.1325 11.7183 21.6776 11.3454 21.1536 11.3454H2.84644C2.32242 11.3454 1.86755 11.7183 1.7648 12.2321L1.57027 13.2047C1.56802 13.216 1.55803 13.2242 1.54655 13.2242H0.727312C0.713953 13.2242 0.703125 13.2133 0.703125 13.2V10.1697H19.8909C20.085 10.1697 20.2425 10.0123 20.2425 9.81818C20.2425 9.62402 20.085 9.46661 19.8909 9.46661H0.703125V7.90254C0.703125 7.44002 1.52986 6.73511 3.85013 6.14365C6.02269 5.58986 8.91703 5.28489 12 5.28489C15.083 5.28489 17.9773 5.58986 20.1498 6.14365C22.4701 6.73507 23.2968 7.44002 23.2968 7.90254V9.46661H21.3938C21.1997 9.46661 21.0423 9.62402 21.0423 9.81818C21.0423 10.0123 21.1997 10.1697 21.3938 10.1697H23.2969V13.2Z"/>
</mask>
<path d="M22.497 6.22075V1.17579C22.497 0.567536 22.0021 0.0727234 21.3939 0.0727234H2.60616C1.99791 0.0727234 1.50309 0.567536 1.50309 1.17579V6.22075C0.306094 6.8118 0 7.42774 0 7.90249V13.1999C0 13.601 0.32625 13.9272 0.727312 13.9272H1.54655C1.89202 13.9272 2.19197 13.6813 2.25975 13.3426L2.45428 12.37C2.4915 12.1837 2.65645 12.0485 2.84644 12.0485H21.1536C21.3435 12.0485 21.5085 12.1837 21.5457 12.37L21.7402 13.3426C21.808 13.6814 22.108 13.9273 22.4535 13.9273H23.2727C23.6738 13.9273 24 13.601 24 13.2V7.90249C24 7.42774 23.6939 6.8118 22.497 6.22075ZM2.20617 1.17579C2.20617 0.955239 2.38561 0.775848 2.60611 0.775848H21.3939C21.6144 0.775848 21.7938 0.955286 21.7938 1.17579V5.91743C21.3807 5.76068 20.8945 5.60786 20.3235 5.46236C20.2149 5.43471 20.1041 5.4078 19.9921 5.38132C20.1523 5.14263 20.2424 4.85815 20.2424 4.55758V3.43029C20.2424 2.61485 19.579 1.95147 18.7636 1.95147H13.1273C12.6759 1.95147 12.2715 2.15491 12 2.47465C11.7285 2.15491 11.3241 1.95147 10.8727 1.95147H5.23636C4.42092 1.95147 3.75755 2.61489 3.75755 3.43029V4.55758C3.75755 4.85636 3.84792 5.1416 4.00856 5.38113C3.89634 5.40761 3.7853 5.43457 3.67645 5.46232C3.10547 5.60786 2.61933 5.76068 2.20617 5.91738V1.17579ZM19.5393 3.43033V4.55763C19.5393 4.82289 19.4061 5.06463 19.1872 5.20718C17.226 4.81975 14.8543 4.60197 12.3515 4.58327V3.43033H12.3516C12.3516 3.0026 12.6995 2.65464 13.1273 2.65464H18.7636C19.1913 2.65464 19.5393 3.0026 19.5393 3.43033ZM11.6484 3.43029V4.58322C9.14555 4.60193 6.77381 4.81975 4.81256 5.20718C4.59417 5.06444 4.46067 4.82088 4.46067 4.55758V3.43029C4.46067 3.00255 4.80862 2.6546 5.23636 2.6546H10.8727C11.3004 2.6546 11.6484 3.0026 11.6484 3.43029ZM23.2969 13.2C23.2969 13.2133 23.286 13.2242 23.2727 13.2242H22.4535C22.442 13.2242 22.432 13.216 22.4297 13.2047L22.2352 12.2321C22.1325 11.7183 21.6776 11.3454 21.1536 11.3454H2.84644C2.32242 11.3454 1.86755 11.7183 1.7648 12.2321L1.57027 13.2047C1.56802 13.216 1.55803 13.2242 1.54655 13.2242H0.727312C0.713953 13.2242 0.703125 13.2133 0.703125 13.2V10.1697H19.8909C20.085 10.1697 20.2425 10.0123 20.2425 9.81818C20.2425 9.62402 20.085 9.46661 19.8909 9.46661H0.703125V7.90254C0.703125 7.44002 1.52986 6.73511 3.85013 6.14365C6.02269 5.58986 8.91703 5.28489 12 5.28489C15.083 5.28489 17.9773 5.58986 20.1498 6.14365C22.4701 6.73507 23.2968 7.44002 23.2968 7.90254V9.46661H21.3938C21.1997 9.46661 21.0423 9.62402 21.0423 9.81818C21.0423 10.0123 21.1997 10.1697 21.3938 10.1697H23.2969V13.2Z" fill="white"/>
<path d="M22.497 6.22075H21.497V6.84222L22.0542 7.11739L22.497 6.22075ZM1.50309 6.22075L1.94584 7.1174L2.50309 6.84224V6.22075H1.50309ZM2.25975 13.3426L3.24032 13.5388L3.24033 13.5387L2.25975 13.3426ZM2.45428 12.37L3.43486 12.5661L3.4349 12.5659L2.45428 12.37ZM21.5457 12.37L20.5651 12.5659L20.5651 12.5661L21.5457 12.37ZM21.7402 13.3426L20.7597 13.5387L20.7597 13.5388L21.7402 13.3426ZM24 7.90249H23H24ZM21.7938 5.91743L21.4391 6.8524L22.7938 7.36637V5.91743H21.7938ZM20.3235 5.46236L20.5704 4.49333L20.5704 4.49331L20.3235 5.46236ZM19.9921 5.38132L19.1617 4.82421L18.358 6.02228L19.7619 6.35445L19.9921 5.38132ZM12 2.47465L11.2377 3.12185L12 4.01975L12.7623 3.12185L12 2.47465ZM4.00856 5.38113L4.23826 6.35439L5.643 6.02286L4.83908 4.82414L4.00856 5.38113ZM3.67645 5.46232L3.92346 6.43133L3.9235 6.43132L3.67645 5.46232ZM2.20617 5.91738H1.20617V7.36617L2.5608 6.85239L2.20617 5.91738ZM19.1872 5.20718L18.9934 6.18822L19.3922 6.267L19.7329 6.04517L19.1872 5.20718ZM12.3515 4.58327H11.3515V5.57582L12.344 5.58324L12.3515 4.58327ZM12.3515 3.43033V2.43033H11.3515V3.43033H12.3515ZM12.3516 3.43033V4.43033H13.3516V3.43033H12.3516ZM11.6484 4.58322L11.6559 5.5832L12.6484 5.57578V4.58322H11.6484ZM4.81256 5.20718L4.26547 6.04425L4.60658 6.26719L5.00636 6.18822L4.81256 5.20718ZM22.4297 13.2047L23.4103 13.0086L23.4103 13.0086L22.4297 13.2047ZM22.2352 12.2321L21.2546 12.4282L21.2546 12.4282L22.2352 12.2321ZM1.7648 12.2321L2.74538 12.4282L2.74538 12.4282L1.7648 12.2321ZM1.57027 13.2047L0.589687 13.0086L0.589685 13.0086L1.57027 13.2047ZM0.703125 10.1697V9.16974H-0.296875V10.1697H0.703125ZM0.703125 9.46661H-0.296875V10.4666H0.703125V9.46661ZM3.85013 6.14365L3.60313 5.17463L3.60311 5.17463L3.85013 6.14365ZM20.1498 6.14365L19.9028 7.11266L19.9028 7.11266L20.1498 6.14365ZM23.2968 9.46661V10.4666H24.2968V9.46661H23.2968ZM23.2969 10.1697H24.2969V9.16974H23.2969V10.1697ZM23.497 6.22075V1.17579H21.497V6.22075H23.497ZM23.497 1.17579C23.497 0.0152226 22.5544 -0.927277 21.3939 -0.927277V1.07272C21.4499 1.07272 21.497 1.11985 21.497 1.17579H23.497ZM21.3939 -0.927277H2.60616V1.07272H21.3939V-0.927277ZM2.60616 -0.927277C1.44562 -0.927277 0.503094 0.015251 0.503094 1.17579H2.50309C2.50309 1.11982 2.55019 1.07272 2.60616 1.07272V-0.927277ZM0.503094 1.17579V6.22075H2.50309V1.17579H0.503094ZM1.06035 5.32411C-0.308123 5.99982 -1 6.88889 -1 7.90249H1C1 7.89944 0.994777 7.84271 1.08835 7.72387C1.19426 7.58937 1.43321 7.37052 1.94584 7.1174L1.06035 5.32411ZM-1 7.90249V13.1999H1V7.90249H-1ZM-1 13.1999C-1 14.1533 -0.226034 14.9272 0.727312 14.9272V12.9272C0.878534 12.9272 1 13.0487 1 13.1999H-1ZM0.727312 14.9272H1.54655V12.9272H0.727312V14.9272ZM1.54655 14.9272C2.36872 14.9272 3.07903 14.3449 3.24032 13.5388L1.27918 13.1464C1.30491 13.0178 1.41531 12.9272 1.54655 12.9272V14.9272ZM3.24033 13.5387L3.43486 12.5661L1.4737 12.1738L1.27917 13.1464L3.24033 13.5387ZM3.4349 12.5659C3.37865 12.8474 3.13292 13.0485 2.84644 13.0485V11.0485C2.17998 11.0485 1.60435 11.52 1.47366 12.174L3.4349 12.5659ZM2.84644 13.0485H21.1536V11.0485H2.84644V13.0485ZM21.1536 13.0485C20.867 13.0485 20.6213 12.8473 20.5651 12.5659L22.5263 12.1741C22.3957 11.52 21.8201 11.0485 21.1536 11.0485V13.0485ZM20.5651 12.5661L20.7597 13.5387L22.7208 13.1465L22.5263 12.1739L20.5651 12.5661ZM20.7597 13.5388C20.921 14.3449 21.6313 14.9273 22.4535 14.9273V12.9273C22.5847 12.9273 22.6951 13.0179 22.7208 13.1464L20.7597 13.5388ZM22.4535 14.9273H23.2727V12.9273H22.4535V14.9273ZM23.2727 14.9273C24.226 14.9273 25 14.1533 25 13.2H23C23 13.0488 23.1215 12.9273 23.2727 12.9273V14.9273ZM25 13.2V7.90249H23V13.2H25ZM25 7.90249C25 6.88892 24.3082 5.99985 22.9398 5.32412L22.0542 7.11739C22.5668 7.37051 22.8057 7.58934 22.9117 7.72385C23.0052 7.84269 23 7.89944 23 7.90249L25 7.90249ZM3.20617 1.17579C3.20617 1.5076 2.93782 1.77585 2.60611 1.77585V-0.224152C1.8334 -0.224152 1.20617 0.402877 1.20617 1.17579H3.20617ZM2.60611 1.77585H21.3939V-0.224152H2.60611V1.77585ZM21.3939 1.77585C21.0621 1.77585 20.7938 1.50749 20.7938 1.17579H22.7938C22.7938 0.40308 22.1668 -0.224152 21.3939 -0.224152V1.77585ZM20.7938 1.17579V5.91743H22.7938V1.17579H20.7938ZM22.1486 4.98246C21.6944 4.81014 21.1714 4.64648 20.5704 4.49333L20.0766 6.4314C20.6175 6.56925 21.067 6.71121 21.4391 6.8524L22.1486 4.98246ZM20.5704 4.49331C20.4546 4.46381 20.3378 4.4355 20.2224 4.40818L19.7619 6.35445C19.8703 6.3801 19.9753 6.4056 20.0766 6.43141L20.5704 4.49331ZM20.8226 5.93842C21.0912 5.53795 21.2424 5.06012 21.2424 4.55758H19.2424C19.2424 4.65617 19.2133 4.7473 19.1617 4.82421L20.8226 5.93842ZM21.2424 4.55758V3.43029H19.2424V4.55758H21.2424ZM21.2424 3.43029C21.2424 2.06256 20.1313 0.951473 18.7636 0.951473V2.95147C19.0267 2.95147 19.2424 3.16713 19.2424 3.43029H21.2424ZM18.7636 0.951473H13.1273V2.95147H18.7636V0.951473ZM13.1273 0.951473C12.3686 0.951473 11.69 1.29465 11.2377 1.82744L12.7623 3.12185C12.8529 3.01517 12.9833 2.95147 13.1273 2.95147V0.951473ZM12.7623 1.82744C12.31 1.29465 11.6314 0.951473 10.8727 0.951473V2.95147C11.0167 2.95147 11.1471 3.01517 11.2377 3.12185L12.7623 1.82744ZM10.8727 0.951473H5.23636V2.95147H10.8727V0.951473ZM5.23636 0.951473C3.86862 0.951473 2.75755 2.06263 2.75755 3.43029H4.75755C4.75755 3.16716 4.97323 2.95147 5.23636 2.95147V0.951473ZM2.75755 3.43029V4.55758H4.75755V3.43029H2.75755ZM2.75755 4.55758C2.75755 5.05931 2.9095 5.53769 3.17804 5.93812L4.83908 4.82414C4.78635 4.7455 4.75755 4.65341 4.75755 4.55758H2.75755ZM3.77887 4.40787C3.66274 4.43527 3.54564 4.46368 3.4294 4.49331L3.9235 6.43132C4.02496 6.40545 4.12995 6.37995 4.23826 6.35439L3.77887 4.40787ZM3.42945 4.4933C2.82846 4.6465 2.30565 4.81014 1.85154 4.98237L2.5608 6.85239C2.93301 6.71121 3.38248 6.56923 3.92346 6.43133L3.42945 4.4933ZM3.20617 5.91738V1.17579H1.20617V5.91738H3.20617ZM18.5393 3.43033V4.55763H20.5393V3.43033H18.5393ZM18.5393 4.55763C18.5393 4.48203 18.5793 4.40971 18.6415 4.36918L19.7329 6.04517C20.2329 5.71955 20.5393 5.16376 20.5393 4.55763H18.5393ZM19.381 4.22613C17.3458 3.82411 14.9101 3.60236 12.359 3.5833L12.344 5.58324C14.7985 5.60158 17.1061 5.8154 18.9934 6.18822L19.381 4.22613ZM13.3515 4.58327V3.43033H11.3515V4.58327H13.3515ZM12.3515 4.43033H12.3516V2.43033H12.3515V4.43033ZM13.3516 3.43033C13.3516 3.55488 13.2518 3.65464 13.1273 3.65464V1.65464C12.1472 1.65464 11.3516 2.45031 11.3516 3.43033H13.3516ZM13.1273 3.65464H18.7636V1.65464H13.1273V3.65464ZM18.7636 3.65464C18.639 3.65464 18.5393 3.55488 18.5393 3.43033H20.5393C20.5393 2.45031 19.7436 1.65464 18.7636 1.65464V3.65464ZM10.6484 3.43029V4.58322H12.6484V3.43029H10.6484ZM11.6409 3.58325C9.08973 3.60232 6.65393 3.82411 4.61877 4.22613L5.00636 6.18822C6.89369 5.8154 9.20136 5.60154 11.6559 5.5832L11.6409 3.58325ZM5.35965 4.3701C5.4215 4.41052 5.46067 4.4805 5.46067 4.55758H3.46067C3.46067 5.16126 3.76685 5.71836 4.26547 6.04425L5.35965 4.3701ZM5.46067 4.55758V3.43029H3.46067V4.55758H5.46067ZM5.46067 3.43029C5.46067 3.55484 5.36091 3.6546 5.23636 3.6546V1.6546C4.25634 1.6546 3.46067 2.45027 3.46067 3.43029H5.46067ZM5.23636 3.6546H10.8727V1.6546H5.23636V3.6546ZM10.8727 3.6546C10.7481 3.6546 10.6484 3.55484 10.6484 3.43029H12.6484C12.6484 2.45035 11.8528 1.6546 10.8727 1.6546V3.6546ZM22.2969 13.2C22.2969 12.6612 22.7336 12.2242 23.2727 12.2242V14.2242C23.8385 14.2242 24.2969 13.7655 24.2969 13.2H22.2969ZM23.2727 12.2242H22.4535V14.2242H23.2727V12.2242ZM22.4535 12.2242C22.9196 12.2242 23.3193 12.5534 23.4103 13.0086L21.4492 13.4008C21.5447 13.8786 21.9643 14.2242 22.4535 14.2242V12.2242ZM23.4103 13.0086L23.2158 12.036L21.2546 12.4282L21.4492 13.4008L23.4103 13.0086ZM23.2158 12.036C23.0196 11.0548 22.1543 10.3454 21.1536 10.3454V12.3454C21.2009 12.3454 21.2453 12.3818 21.2546 12.4282L23.2158 12.036ZM21.1536 10.3454H2.84644V12.3454H21.1536V10.3454ZM2.84644 10.3454C1.84573 10.3454 0.980439 11.0548 0.784213 12.036L2.74538 12.4282C2.75465 12.3818 2.79912 12.3454 2.84644 12.3454V10.3454ZM0.784218 12.036L0.589687 13.0086L2.55084 13.4008L2.74538 12.4282L0.784218 12.036ZM0.589685 13.0086C0.68074 12.5533 1.08044 12.2242 1.54655 12.2242V14.2242C2.03563 14.2242 2.45529 13.8786 2.55085 13.4008L0.589685 13.0086ZM1.54655 12.2242H0.727312V14.2242H1.54655V12.2242ZM0.727312 12.2242C1.26637 12.2242 1.70312 12.6612 1.70312 13.2H-0.296875C-0.296875 13.7655 0.161536 14.2242 0.727312 14.2242V12.2242ZM1.70312 13.2V10.1697H-0.296875V13.2H1.70312ZM0.703125 11.1697H19.8909V9.16974H0.703125V11.1697ZM19.8909 11.1697C20.6373 11.1697 21.2425 10.5646 21.2425 9.81818H19.2425C19.2425 9.46005 19.5328 9.16974 19.8909 9.16974V11.1697ZM21.2425 9.81818C21.2425 9.07174 20.6373 8.46661 19.8909 8.46661V10.4666C19.5328 10.4666 19.2425 10.1763 19.2425 9.81818H21.2425ZM19.8909 8.46661H0.703125V10.4666H19.8909V8.46661ZM1.70312 9.46661V7.90254H-0.296875V9.46661H1.70312ZM1.70312 7.90254C1.70312 8.08984 1.62157 8.17485 1.64545 8.14539C1.66686 8.11897 1.74518 8.03809 1.93348 7.92134C2.31011 7.68783 2.98875 7.3952 4.09714 7.11266L3.60311 5.17463C2.39123 5.48356 1.49638 5.83912 0.879573 6.22155C0.571153 6.41278 0.29777 6.63182 0.0916618 6.88613C-0.111983 7.1374 -0.296875 7.48398 -0.296875 7.90254H1.70312ZM4.09712 7.11266C6.16521 6.58551 8.97161 6.28489 12 6.28489V4.28489C8.86245 4.28489 5.88017 4.59422 3.60313 5.17463L4.09712 7.11266ZM12 6.28489C15.0284 6.28489 17.8348 6.58551 19.9028 7.11266L20.3968 5.17463C18.1198 4.59422 15.1375 4.28489 12 4.28489V6.28489ZM19.9028 7.11266C21.0112 7.39518 21.6899 7.6878 22.0665 7.92132C22.2548 8.03806 22.3331 8.11894 22.3545 8.14536C22.3784 8.17482 22.2968 8.08982 22.2968 7.90254H24.2968C24.2968 7.484 24.112 7.13743 23.9083 6.88615C23.7022 6.63182 23.4288 6.41278 23.1204 6.22154C22.5036 5.8391 21.6087 5.48353 20.3968 5.17463L19.9028 7.11266ZM22.2968 7.90254V9.46661H24.2968V7.90254H22.2968ZM23.2968 8.46661H21.3938V10.4666H23.2968V8.46661ZM21.3938 8.46661C20.6474 8.46661 20.0423 9.07174 20.0423 9.81818H22.0423C22.0423 10.1763 21.752 10.4666 21.3938 10.4666V8.46661ZM20.0423 9.81818C20.0423 10.5646 20.6474 11.1697 21.3938 11.1697V9.16974C21.752 9.16974 22.0423 9.46005 22.0423 9.81818H20.0423ZM21.3938 11.1697H23.2969V9.16974H21.3938V11.1697ZM22.2969 10.1697V13.2H24.2969V10.1697H22.2969Z" fill="white" mask="url(#path-1-inside-1_201_608)"/>
</svg>
