<svg width="24" height="24" viewBox="0 0 24 24" fill="none" xmlns="http://www.w3.org/2000/svg">
<path d="M22.497 11.2208V6.17579C22.497 5.56754 22.0021 5.07272 21.3939 5.07272H2.60616C1.99791 5.07272 1.50309 5.56754 1.50309 6.17579V11.2208C0.306094 11.8118 0 12.4277 0 12.9025V18.1999C0 18.601 0.32625 18.9272 0.727312 18.9272H1.54655C1.89202 18.9272 2.19197 18.6813 2.25975 18.3426L2.45428 17.37C2.4915 17.1837 2.65645 17.0485 2.84644 17.0485H21.1536C21.3435 17.0485 21.5085 17.1837 21.5457 17.37L21.7402 18.3426C21.808 18.6814 22.108 18.9273 22.4535 18.9273H23.2727C23.6738 18.9273 24 18.601 24 18.2V12.9025C24 12.4277 23.6939 11.8118 22.497 11.2208ZM2.20617 6.17579C2.20617 5.95524 2.38561 5.77585 2.60611 5.77585H21.3939C21.6144 5.77585 21.7938 5.95529 21.7938 6.17579V10.9174C21.3807 10.7607 20.8945 10.6079 20.3235 10.4624C20.2149 10.4347 20.1041 10.4078 19.9921 10.3813C20.1523 10.1426 20.2424 9.85815 20.2424 9.55758V8.43029C20.2424 7.61485 19.579 6.95147 18.7636 6.95147H13.1273C12.6759 6.95147 12.2715 7.15491 12 7.47465C11.7285 7.15491 11.3241 6.95147 10.8727 6.95147H5.23636C4.42092 6.95147 3.75755 7.61489 3.75755 8.43029V9.55758C3.75755 9.85636 3.84792 10.1416 4.00856 10.3811C3.89634 10.4076 3.7853 10.4346 3.67645 10.4623C3.10547 10.6079 2.61933 10.7607 2.20617 10.9174V6.17579ZM19.5393 8.43033V9.55763C19.5393 9.82289 19.4061 10.0646 19.1872 10.2072C17.226 9.81975 14.8543 9.60197 12.3515 9.58327V8.43033H12.3516C12.3516 8.0026 12.6995 7.65464 13.1273 7.65464H18.7636C19.1913 7.65464 19.5393 8.0026 19.5393 8.43033ZM11.6484 8.43029V9.58322C9.14555 9.60193 6.77381 9.81975 4.81256 10.2072C4.59417 10.0644 4.46067 9.82088 4.46067 9.55758V8.43029C4.46067 8.00255 4.80862 7.6546 5.23636 7.6546H10.8727C11.3004 7.6546 11.6484 8.0026 11.6484 8.43029ZM23.2969 18.2C23.2969 18.2133 23.286 18.2242 23.2727 18.2242H22.4535C22.442 18.2242 22.432 18.216 22.4297 18.2047L22.2352 17.2321C22.1325 16.7183 21.6776 16.3454 21.1536 16.3454H2.84644C2.32242 16.3454 1.86755 16.7183 1.7648 17.2321L1.57027 18.2047C1.56802 18.216 1.55803 18.2242 1.54655 18.2242H0.727312C0.713953 18.2242 0.703125 18.2133 0.703125 18.2V15.1697H19.8909C20.085 15.1697 20.2425 15.0123 20.2425 14.8182C20.2425 14.624 20.085 14.4666 19.8909 14.4666H0.703125V12.9025C0.703125 12.44 1.52986 11.7351 3.85013 11.1436C6.02269 10.5899 8.91703 10.2849 12 10.2849C15.083 10.2849 17.9773 10.5899 20.1498 11.1436C22.4701 11.7351 23.2968 12.44 23.2968 12.9025V14.4666H21.3938C21.1997 14.4666 21.0423 14.624 21.0423 14.8182C21.0423 15.0123 21.1997 15.1697 21.3938 15.1697H23.2969V18.2Z" fill="#023B47"/>
</svg>
