<svg width="22" height="24" viewBox="0 0 22 24" fill="none" xmlns="http://www.w3.org/2000/svg">
<path d="M15.9227 21.1752C15.8595 21.1752 15.7974 21.1798 15.7364 21.1879C15.1958 19.3618 13.6259 17.9738 11.7017 17.6988V16.3954H10.2982V17.6988C8.37208 17.9741 6.80088 19.3646 6.26183 21.1934C6.18832 21.1816 6.11299 21.1752 6.03616 21.1752C5.25611 21.1752 4.62378 21.8075 4.62378 22.5876C4.62378 23.3676 5.25611 23.9999 6.03616 23.9999C6.74523 23.9999 7.33209 23.4774 7.43307 22.7964C7.4536 22.7304 7.46466 22.6603 7.46466 22.5875C7.46466 20.8784 8.68386 19.4488 10.2982 19.1224V21.3477C9.85993 21.5874 9.56263 22.0527 9.56263 22.5876C9.56263 23.3676 10.195 23.9999 10.975 23.9999C11.755 23.9999 12.3873 23.3676 12.3873 22.5876C12.3873 22.0734 12.1125 21.6234 11.7017 21.3764V19.1224C13.2459 19.4347 14.4278 20.7563 14.5277 22.3665C14.5163 22.4386 14.5103 22.5124 14.5103 22.5876C14.5103 23.3676 15.1427 24 15.9227 24C16.7027 24 17.3351 23.3676 17.3351 22.5876C17.3351 21.8076 16.7027 21.1752 15.9227 21.1752Z" fill="white"/>
<path d="M20.8443 7.46036H18.9381C18.5505 7.46036 18.2364 7.77453 18.2364 8.16212V10.2813C18.2364 10.9327 17.7059 11.4627 17.0536 11.4627H16.8888C16.8874 11.4627 16.8861 11.4629 16.8847 11.4629V11.4627H5.1151V11.4629C5.11374 11.4629 5.11238 11.4627 5.11102 11.4627H5.08932C4.43715 11.4627 3.90659 10.9327 3.90659 10.2813V8.16212C3.90659 7.77453 3.59242 7.46036 3.20483 7.46036H1.15562C0.768032 7.46036 0.453857 7.77453 0.453857 8.16212C0.453857 8.5497 0.768032 8.86388 1.15562 8.86388H2.50312V10.2813C2.50312 11.7066 3.6633 12.8663 5.08932 12.8663H5.11102C5.11243 12.8663 5.11374 12.8661 5.1151 12.8661V13.114C5.1151 14.1496 5.95463 14.9891 6.99021 14.9891H15.0097C16.0453 14.9891 16.8848 14.1496 16.8848 13.114V12.8661C16.8861 12.8661 16.8875 12.8663 16.8889 12.8663H17.0537C18.4797 12.8663 19.6399 11.7067 19.6399 10.2813V8.86388H20.8443C21.2319 8.86388 21.546 8.5497 21.546 8.16212C21.546 7.77458 21.2318 7.46036 20.8443 7.46036Z" fill="white"/>
<path d="M15.9387 2.57687C15.9387 1.15601 14.7827 0 13.3618 0H8.6379C7.21699 0 6.06104 1.15596 6.06104 2.57687V10.0564H15.9387V2.57687Z" fill="white"/>
</svg>
