<svg width="24" height="24" viewBox="0 0 24 24" fill="none" xmlns="http://www.w3.org/2000/svg">
<g clip-path="url(#clip0_201_602)">
<path d="M16.9227 21.1752C16.8595 21.1752 16.7974 21.1798 16.7364 21.1879C16.1958 19.3618 14.6259 17.9738 12.7017 17.6988V16.3954H11.2982V17.6988C9.37208 17.9741 7.80088 19.3646 7.26183 21.1934C7.18832 21.1816 7.11299 21.1752 7.03616 21.1752C6.25611 21.1752 5.62378 21.8075 5.62378 22.5876C5.62378 23.3676 6.25611 23.9999 7.03616 23.9999C7.74523 23.9999 8.33209 23.4774 8.43307 22.7964C8.4536 22.7304 8.46466 22.6603 8.46466 22.5875C8.46466 20.8784 9.68386 19.4488 11.2982 19.1224V21.3477C10.8599 21.5874 10.5626 22.0527 10.5626 22.5876C10.5626 23.3676 11.195 23.9999 11.975 23.9999C12.755 23.9999 13.3873 23.3676 13.3873 22.5876C13.3873 22.0734 13.1125 21.6234 12.7017 21.3764V19.1224C14.2459 19.4347 15.4278 20.7563 15.5277 22.3665C15.5163 22.4386 15.5103 22.5124 15.5103 22.5876C15.5103 23.3676 16.1427 24 16.9227 24C17.7027 24 18.3351 23.3676 18.3351 22.5876C18.3351 21.8076 17.7027 21.1752 16.9227 21.1752Z" fill="white"/>
<path d="M21.8443 7.46036H19.9381C19.5505 7.46036 19.2364 7.77453 19.2364 8.16212V10.2813C19.2364 10.9327 18.7059 11.4627 18.0536 11.4627H17.8888C17.8874 11.4627 17.8861 11.4629 17.8847 11.4629V11.4627H6.1151V11.4629C6.11374 11.4629 6.11238 11.4627 6.11102 11.4627H6.08932C5.43715 11.4627 4.90659 10.9327 4.90659 10.2813V8.16212C4.90659 7.77453 4.59242 7.46036 4.20483 7.46036H2.15562C1.76803 7.46036 1.45386 7.77453 1.45386 8.16212C1.45386 8.5497 1.76803 8.86388 2.15562 8.86388H3.50312V10.2813C3.50312 11.7066 4.6633 12.8663 6.08932 12.8663H6.11102C6.11243 12.8663 6.11374 12.8661 6.1151 12.8661V13.114C6.1151 14.1496 6.95463 14.9891 7.99021 14.9891H16.0097C17.0453 14.9891 17.8848 14.1496 17.8848 13.114V12.8661C17.8861 12.8661 17.8875 12.8663 17.8889 12.8663H18.0537C19.4797 12.8663 20.6399 11.7067 20.6399 10.2813V8.86388H21.8443C22.2319 8.86388 22.546 8.5497 22.546 8.16212C22.546 7.77458 22.2318 7.46036 21.8443 7.46036Z" fill="white"/>
<path d="M16.9387 2.57687C16.9387 1.15601 15.7827 0 14.3618 0H9.6379C8.21699 0 7.06104 1.15596 7.06104 2.57687V10.0564H16.9387V2.57687Z" fill="white"/>
</g>
<defs>
<clipPath id="clip0_201_602">
<rect width="24" height="24" fill="white"/>
</clipPath>
</defs>
</svg>
