<svg width="24" height="24" viewBox="0 0 24 24" fill="none" xmlns="http://www.w3.org/2000/svg">
<g clip-path="url(#clip0_201_602)">
<path d="M16.257 21.3298L16.3782 21.7392L16.8016 21.6836C16.8436 21.6781 16.8838 21.6752 16.9227 21.6752C17.4266 21.6752 17.8351 22.0838 17.8351 22.5876C17.8351 23.0915 17.4266 23.5 16.9227 23.5C16.4188 23.5 16.0103 23.0915 16.0103 22.5876C16.0103 22.539 16.0142 22.4913 16.0216 22.4443L16.0301 22.3902L16.0267 22.3356C15.9126 20.4963 14.5637 18.9888 12.8008 18.6323L12.2017 18.5112V19.1224V21.3764V21.6592L12.444 21.8049C12.7108 21.9653 12.8873 22.2561 12.8873 22.5876C12.8873 23.0914 12.4789 23.4999 11.975 23.4999C11.4711 23.4999 11.0626 23.0914 11.0626 22.5876C11.0626 22.2428 11.2537 21.942 11.5382 21.7864L11.7982 21.6441V21.3477V19.1224V18.5112L11.1991 18.6323C9.35657 19.0048 7.96466 20.6353 7.96466 22.5875C7.96466 22.6093 7.96139 22.6294 7.95567 22.6478L7.94416 22.6847L7.93848 22.723C7.8733 23.1626 7.49368 23.4999 7.03616 23.4999C6.53224 23.4999 6.12378 23.0914 6.12378 22.5876C6.12378 22.0837 6.53226 21.6752 7.03616 21.6752C7.08526 21.6752 7.13405 21.6793 7.18249 21.6871L7.617 21.7569L7.74143 21.3348C8.22595 19.6909 9.63938 18.4409 11.369 18.1938L11.7982 18.1325V17.6988V16.8954H12.2017V17.6988V18.1325L12.631 18.1938C14.3588 18.4407 15.7711 19.6884 16.257 21.3298Z" stroke="#023B47"/>
<path d="M17.8525 13.365L17.8531 13.365L17.8525 13.365ZM4.00312 8.86388V8.36388H3.50312H2.15562C2.04417 8.36388 1.95386 8.27356 1.95386 8.16212C1.95386 8.05067 2.04417 7.96036 2.15562 7.96036H4.20483C4.31627 7.96036 4.40659 8.05067 4.40659 8.16212V10.2813C4.40659 11.2094 5.16153 11.9627 6.08932 11.9627H6.11102H6.11103H6.11104H6.11104H6.11105H6.11106H6.11107H6.11108H6.11108H6.11109H6.1111H6.11111H6.11112H6.11112H6.11113H6.11114H6.11115H6.11116H6.11116H6.11117H6.11118H6.11119H6.1112H6.1112H6.11121H6.11122H6.11123H6.11124H6.11124H6.11125H6.11126H6.11127H6.11128H6.11128H6.11129H6.1113H6.11131H6.11132H6.11132H6.11133H6.11134H6.11135H6.11136H6.11136H6.11137H6.11138H6.11139H6.1114H6.1114H6.11141H6.11142H6.11143H6.11144H6.11144H6.11145H6.11146H6.11147H6.11147H6.11148H6.11149H6.1115H6.11151H6.11152H6.11152H6.11153H6.11154H6.11155H6.11155H6.11156H6.11157H6.11158H6.11159H6.11159H6.1116H6.11161H6.11162H6.11163H6.11163H6.11164H6.11165H6.11166H6.11167H6.11167H6.11168H6.11169H6.1117H6.11171H6.11171H6.11172H6.11173H6.11174H6.11175H6.11175H6.11176H6.11177H6.11178H6.11179H6.11179H6.1118H6.11181H6.11182H6.11183H6.11183H6.11184H6.11185H6.11186H6.11187H6.11187H6.11188H6.11189H6.1119H6.11191H6.11191H6.11192H6.11193H6.11194H6.11195H6.11195H6.11196H6.11197H6.11198H6.11198H6.11199H6.112H6.11201H6.11202H6.11202H6.11203H6.11204H6.11205H6.11206H6.11206H6.11207H6.11208H6.11209H6.1121H6.1121H6.11211H6.11212H6.11213H6.11214H6.11214H6.11215H6.11216H6.11217H6.11218H6.11218H6.11219H6.1122H6.11221H6.11222H6.11222H6.11223H6.11224H6.11225H6.11226H6.11226H6.11227H6.11228H6.11229H6.1123H6.1123H6.11231H6.11232H6.11233H6.11234H6.11234H6.11235H6.11236H6.11237H6.11238H6.11238H6.11239H6.1124H6.11241H6.11242H6.11242H6.11243H6.11244H6.11245H6.11245H6.11246H6.11247H6.11248H6.11249H6.11249H6.1125H6.11251H6.11252H6.11253H6.11253H6.11254H6.11255H6.11256H6.11257H6.11257H6.11258H6.11259H6.1126H6.11261H6.11261H6.11262H6.11263H6.11264H6.11265H6.11265H6.11266H6.11267H6.11268H6.11269H6.11269H6.1127H6.11271H6.11272H6.11273H6.11273H6.11274H6.11275H6.11276H6.11277H6.11277H6.11278H6.11279H6.1128H6.11281H6.11281H6.11282H6.11283H6.11284H6.11285H6.11285H6.11286H6.11287H6.11288H6.11288H6.11289H6.1129H6.11291H6.11292H6.11293H6.11293H6.11294H6.11295H6.11296H6.11297H6.11297H6.11298H6.11299H6.113H6.113H6.11301H6.11302H6.11303H6.11304H6.11304H6.11305H6.11306H6.11307H6.11308H6.11308H6.11309H6.1131H6.11311H6.11312H6.11312H6.11313H6.11314H6.11315H6.11316H6.11316H6.11317H6.11318H6.11319H6.1132H6.1132H6.11321H6.11322H6.11323H6.11324H6.11324H6.11325H6.11326H6.11327H6.11328H6.11328H6.11329H6.1133H6.11331H6.11332H6.11332H6.11333H6.11334H6.11335H6.11336H6.11336H6.11337H6.11338H6.11339H6.1134H6.1134H6.11341H6.11342H6.11343H6.11343H6.11344H6.11345H6.11346H6.11347H6.11347H6.11348H6.11349H6.1135H6.11351H6.11351H6.11352H6.11353H6.11354H6.11355H6.11355H6.11356H6.11357H6.11358H6.11359H6.11359H6.1136H6.11361H6.11362H6.11363H6.11363H6.11364H6.11365H6.11366H6.11367H6.11367H6.11368H6.11369H6.1137H6.11371H6.11371H6.11372H6.11373H6.11374H6.11375H6.11375H6.11376H6.11377H6.11378H6.11379H6.11379H6.1138H6.11381H6.11382H6.11383H6.11383H6.11384H6.11385H6.11386H6.11386H6.11387H6.11388H6.11389H6.1139H6.1139H6.11391H6.11392H6.11393H6.11394H6.11395H6.11395H6.11396H6.11397H6.11398H6.11398H6.11399H6.114H6.11401H6.11402H6.11402H6.11403H6.11404H6.11405H6.11406H6.11406H6.11407H6.11408H6.11409H6.1141H6.1141H6.11411H6.11412H6.11413H6.11414H6.11414H6.11415H6.11416H6.11417H6.11418H6.11418H6.11419H6.1142H6.11421H6.11422H6.11422H6.11423H6.11424H6.11425H6.11426H6.11426H6.11427H6.11428H6.11429H6.1143H6.1143H6.11431H6.11432H6.11433H6.11434H6.11434H6.11435H6.11436H6.11437H6.11438H6.11438H6.11439H6.1144H6.11441H6.11441H6.11442H6.11443H6.11444H6.11445H6.11445H6.11446H6.11447H6.11448H6.11449H6.11449H6.1145H6.11451H6.11452H6.11453H6.11453H6.11454H6.11455H6.11456H6.11457H6.11457H6.11458H6.11459H6.1146H6.11461H6.11461H6.11462H6.11463H6.11464H6.11465H6.11465H6.11466H6.11467H6.11468H6.11469H6.11469H6.1147H6.11471H6.11472H6.11473H6.11473H6.11474H6.11475H6.11476H6.11477H6.11477H6.11478H6.11479H6.1148H6.11481H6.11481H6.11482H6.11483H6.11484H6.11484H6.11485H6.11486H6.11487H6.11488H6.11488H6.11489H6.1149H6.11491H6.11492H6.11492H6.11493H6.11494H6.11495H6.11496H6.11496H6.11497H6.11498H6.11499H6.115H6.115H6.11501H6.11502H6.11503H6.11504H6.11504H6.11505H6.11506H6.11507H6.11508H6.11508H6.11509H6.1151L17.8847 11.9629C17.8898 11.9629 17.8945 11.9628 17.8986 11.9627H18.0536C18.9815 11.9627 19.7364 11.2094 19.7364 10.2813V8.16212C19.7364 8.05067 19.8267 7.96036 19.9381 7.96036H21.8443C21.9557 7.96036 22.046 8.05072 22.046 8.16212C22.046 8.27356 21.9557 8.36388 21.8443 8.36388H20.6399H20.1399V8.86388V10.2813C20.1399 11.4303 19.2038 12.3663 18.0537 12.3663H17.8987C17.8946 12.3661 17.8899 12.3661 17.8848 12.3661H17.3848V12.8661V13.114C17.3848 13.8734 16.7691 14.4891 16.0097 14.4891H7.99021C7.23078 14.4891 6.6151 13.8734 6.6151 13.114V12.8661V12.3661H6.1151C6.11002 12.3661 6.10535 12.3661 6.1012 12.3663H6.08932C4.93921 12.3663 4.00312 11.4303 4.00312 10.2813V8.86388ZM17.9214 11.9616C17.9218 11.9616 17.9215 11.9616 17.9207 11.9617L17.9214 11.9616ZM17.9212 12.3673L17.9205 12.3673L17.9212 12.3673Z" stroke="#023B47"/>
<path d="M14.3618 0.5C15.5066 0.5 16.4387 1.43214 16.4387 2.57687V9.55645H7.56104V2.57687C7.56104 1.4321 8.49314 0.5 9.6379 0.5H14.3618Z" stroke="#023B47"/>
</g>
<defs>
<clipPath id="clip0_201_602">
<rect width="24" height="24" fill="white"/>
</clipPath>
</defs>
</svg>
