<svg width="24" height="24" viewBox="0 0 24 24" fill="none" xmlns="http://www.w3.org/2000/svg">
<path fill-rule="evenodd" clip-rule="evenodd" d="M1 12C1 5.92487 5.92487 1 12 1C18.0751 1 23 5.92487 23 12C23 18.0751 18.0751 23 12 23C5.92487 23 1 18.0751 1 12ZM12 2.43925C6.71974 2.43925 2.43925 6.71974 2.43925 12C2.43925 17.2803 6.71974 21.5607 12 21.5607C17.2803 21.5607 21.5607 17.2803 21.5607 12C21.5607 6.71974 17.2803 2.43925 12 2.43925Z" fill="#707070"/>
<path fill-rule="evenodd" clip-rule="evenodd" d="M8.01731 15.9016C7.79838 15.7631 7.61297 15.5777 7.4745 15.3588C7.18809 14.906 7.22984 14.3938 7.3183 13.9631C7.40683 13.5319 7.58675 12.9922 7.79906 12.3554L8.53156 10.1579C8.53975 10.1333 8.5479 10.1086 8.55608 10.0839C8.65728 9.77776 8.7622 9.46041 8.97468 9.20436C9.04372 9.12116 9.12033 9.04454 9.20353 8.9755C9.45958 8.76302 9.77694 8.65811 10.0831 8.55691C10.1078 8.54873 10.1325 8.54057 10.157 8.53239L12.3545 7.79989C12.9914 7.58757 13.5311 7.40766 13.9622 7.31912C14.393 7.23067 14.9051 7.18891 15.358 7.47532C15.5769 7.61379 15.7623 7.79921 15.9008 8.01814C16.1872 8.47097 16.1454 8.98311 16.057 9.41387C15.9685 9.84504 15.7885 10.3847 15.5762 11.0216L14.8437 13.2191C14.8355 13.2436 14.8274 13.2683 14.8192 13.293C14.718 13.5992 14.6131 13.9165 14.4006 14.1726C14.3316 14.2558 14.255 14.3324 14.1717 14.4014C13.9157 14.6139 13.5983 14.7188 13.2922 14.82C13.2675 14.8282 13.2428 14.8364 13.2183 14.8445L11.0646 15.5624C11.05 15.5673 11.0353 15.5722 11.0208 15.577C10.3839 15.7894 9.84422 15.9693 9.41305 16.0578C8.98228 16.1463 8.47014 16.188 8.01731 15.9016ZM8.77842 14.6798C8.80045 14.6846 8.89094 14.6957 9.12355 14.648C9.45987 14.5789 9.91681 14.4279 10.6095 14.197L12.7631 13.4792C13.1988 13.3339 13.2325 13.3106 13.2527 13.2939C13.2673 13.2817 13.2809 13.2682 13.293 13.2535C13.3097 13.2334 13.3331 13.1997 13.4783 12.7639L14.1962 10.6103C14.4271 9.91764 14.5781 9.46069 14.6472 9.12438C14.6949 8.89176 14.6837 8.80127 14.679 8.77924C14.6571 8.7469 14.6292 8.71902 14.5969 8.69709C14.5748 8.69237 14.4843 8.68119 14.2517 8.72896C13.9154 8.79802 13.4585 8.94901 12.7658 9.17991L10.6122 9.89778C10.1764 10.043 10.1427 10.0664 10.1226 10.0831C10.1079 10.0953 10.0944 10.1088 10.0822 10.1235C10.0656 10.1436 10.0422 10.1773 9.89696 10.613L9.17908 12.7666C8.94819 13.4593 8.79719 13.9162 8.72813 14.2526C8.68037 14.4852 8.69154 14.5757 8.69627 14.5977C8.7182 14.63 8.74608 14.6579 8.77842 14.6798Z" fill="#707070"/>
</svg>
