<svg width="32" height="32" viewBox="0 0 32 32" fill="none" xmlns="http://www.w3.org/2000/svg">
<path d="M16.5 0.5H24C28.1421 0.5 31.5 3.85786 31.5 8C31.5 12.1421 28.1421 15.5 24 15.5H16.5V0.5Z" fill="white" stroke="black"/>
<path d="M8 15.5C3.85786 15.5 0.5 12.1421 0.5 8C0.5 3.85786 3.85786 0.5 8 0.5C12.1421 0.5 15.5 3.85786 15.5 8C15.5 12.1421 12.1421 15.5 8 15.5Z" fill="white" stroke="black"/>
<path d="M24 31.5C19.8579 31.5 16.5 28.1421 16.5 24C16.5 19.8579 19.8579 16.5 24 16.5C28.1421 16.5 31.5 19.8579 31.5 24C31.5 28.1421 28.1421 31.5 24 31.5Z" fill="white" stroke="black"/>
<path d="M15.5 16.5L15.5 24C15.5 28.1421 12.1421 31.5 8 31.5C3.85786 31.5 0.499999 28.1421 0.5 24L0.5 16.5L15.5 16.5Z" fill="white" stroke="black"/>
<path d="M7.5 1C5.51088 1 3.60322 1.7375 2.1967 3.05025C0.790176 4.36301 -2.36956e-07 6.14348 -3.0598e-07 8C-3.75004e-07 9.85652 0.790176 11.637 2.1967 12.9497C3.60322 14.2625 5.51088 15 7.5 15L7.5 8L7.5 1Z" fill="black"/>
<path d="M17 24.5C17 26.4891 17.7375 28.3968 19.0503 29.8033C20.363 31.2098 22.1435 32 24 32C25.8565 32 27.637 31.2098 28.9497 29.8033C30.2625 28.3968 31 26.4891 31 24.5L24 24.5L17 24.5Z" fill="black"/>
</svg>
