<svg width="20" height="20" viewBox="0 0 20 20" fill="none" xmlns="http://www.w3.org/2000/svg">
<path d="M6.3 19C3.60441 18.9995 2.2364 18.979 1.37868 18.1213C0.5 17.2426 0.5 15.8284 0.5 13V11.6037C0.5 9.46356 0.5 8.39348 0.906714 7.44772C0.966147 7.30951 1.03179 7.17406 1.10344 7.04177C1.59373 6.13651 2.43362 5.47344 4.11338 4.14732C6.78372 2.03916 8.11888 0.985076 9.6661 0.881522C9.88845 0.866641 10.1115 0.866641 10.3339 0.881522C11.8811 0.985076 13.2163 2.03916 15.8866 4.14732C17.5664 5.47344 18.4063 6.13651 18.8966 7.04177C18.9682 7.17406 19.0339 7.30951 19.0933 7.44772C19.5 8.39348 19.5 9.46356 19.5 11.6037V13C19.5 15.8284 19.5 17.2426 18.6213 18.1213C17.7636 18.979 16.3956 18.9995 13.7 19M6.3 19C6.36587 19 6.43253 19 6.5 19H13.5C13.5675 19 13.6341 19 13.7 19M6.3 19C6.3 18.5141 6.3957 18.0329 6.58165 17.584C6.76759 17.1351 7.04013 16.7273 7.3837 16.3837C7.72728 16.0401 8.13517 15.7676 8.58407 15.5816C9.03298 15.3957 9.51411 15.3 10 15.3C10.4859 15.3 10.967 15.3957 11.4159 15.5816C11.8648 15.7676 12.2727 16.0401 12.6163 16.3837C12.9599 16.7273 13.2324 17.1351 13.4184 17.584C13.6043 18.0329 13.7 18.5141 13.7 19M6.3 19H7.7C7.7 18.6979 7.75949 18.3988 7.87508 18.1198C7.99066 17.8407 8.16008 17.5872 8.37365 17.3736C8.58723 17.16 8.84078 16.9906 9.11983 16.875C9.39888 16.7595 9.69796 16.7 10 16.7C10.302 16.7 10.6011 16.7595 10.8802 16.875C11.1592 16.9906 11.4128 17.16 11.6263 17.3736C11.8399 17.5872 12.0093 17.8407 12.1249 18.1198C12.2405 18.3988 12.3 18.6979 12.3 19H13.7" stroke="#707070"/>
</svg>
