<svg width="24" height="24" viewBox="0 0 24 24" fill="none" xmlns="http://www.w3.org/2000/svg">
<g clip-path="url(#clip0_201_614)">
<path d="M17.3906 13.1719H16.9773C17.0472 11.7945 17.0578 10.3915 17.0073 8.99488C17.0002 8.80086 16.8373 8.65067 16.6432 8.65625C16.4492 8.66324 16.2975 8.82627 16.3046 9.02033C16.3548 10.4086 16.3445 11.8035 16.2739 13.1719H16.0302H14.2293C14.2627 11.985 14.4908 8.03868 16.0346 5.4621C16.096 5.97051 16.1673 6.66252 16.2254 7.5081C16.2388 7.70179 16.4071 7.84775 16.6003 7.83472C16.794 7.82141 16.9402 7.65355 16.9269 7.45986C16.8494 6.33322 16.7487 5.4727 16.6779 4.94915C16.6414 4.67953 16.4801 4.47815 16.2569 4.42364C16.0599 4.37531 15.8598 4.45603 15.7346 4.63387C15.607 4.81509 15.4847 5.00713 15.3675 5.20916C15.0406 3.98521 14.6413 2.93681 14.1761 2.08439C14.04 1.83487 13.8185 1.78045 13.6566 1.81298C13.4654 1.85123 13.3183 2.00569 13.2479 2.23069C13.1203 1.65666 12.9856 1.15064 12.8551 0.715314C12.7287 0.294846 12.4434 0.0211429 12.1106 0.00112736C11.9113 -0.0108257 11.5355 0.0626741 11.2607 0.690657C11.0536 1.16414 10.8809 1.66678 10.7371 2.18681C10.6619 1.98567 10.5219 1.84875 10.3433 1.81298C10.1814 1.78045 9.95995 1.83487 9.82387 2.08434C9.35863 2.93676 8.95931 3.98517 8.6324 5.20916C8.51521 5.00713 8.39296 4.81509 8.26537 4.63387C8.14017 4.45607 7.94001 4.37526 7.74304 4.42364C7.51983 4.47815 7.35848 4.67953 7.32201 4.94915C7.16245 6.1288 6.82228 9.24153 7.02192 13.1719H6.60937C6.41522 13.1719 6.25781 13.3292 6.25781 13.5234V14.9297C6.25781 15.1239 6.41522 15.2812 6.60937 15.2812H6.93197L7.04001 15.8079C7.07414 15.9743 7.22058 16.0889 7.38403 16.0889C7.40747 16.0889 7.43123 16.0865 7.45504 16.0816C7.64526 16.0426 7.76779 15.8568 7.72879 15.6666L7.64976 15.2813H13.5C13.6941 15.2813 13.8515 15.1239 13.8515 14.9297C13.8515 14.7355 13.6941 14.5781 13.5 14.5781H7.22025C7.21936 14.5781 7.21851 14.5781 7.21762 14.5781H6.96094V13.875H7.39331H7.96968H10.1279H10.6934H10.7208H13.2792H13.428H13.8721H16.0303H16.6067H17.039V14.5781H16.782C16.7813 14.5781 16.7807 14.5781 16.78 14.5781H15.0078C14.8136 14.5781 14.6562 14.7355 14.6562 14.9297C14.6562 15.1239 14.8136 15.2813 15.0078 15.2813H16.3502L14.9945 21.8906H9.00548L8.03723 17.1705C7.99823 16.9803 7.81232 16.8576 7.6222 16.8967C7.43198 16.9357 7.30945 17.1215 7.34845 17.3118L8.36718 22.2779V23.6484C8.36718 23.8426 8.52459 24 8.71875 24H15.2812C15.4754 24 15.6328 23.8426 15.6328 23.6484V22.2779L17.068 15.2813H17.3906C17.5848 15.2813 17.7422 15.1239 17.7422 14.9297V13.5235C17.7422 13.3293 17.5848 13.1719 17.3906 13.1719ZM7.96968 13.1719H7.72598C7.54603 9.6838 7.79798 6.8488 7.96532 5.46215C9.50732 8.03666 9.73668 11.9845 9.77052 13.1719H7.96968ZM10.1182 9.16897C10.1111 9.29713 10.1052 9.42664 10.1007 9.5577C9.86559 8.26349 9.53713 7.13258 9.1184 6.17441C9.3966 4.95215 9.74024 3.8931 10.1436 3.0157C10.1825 3.43007 10.2276 3.96351 10.2712 4.59867C10.071 6.21838 10.0622 7.8411 10.1182 9.16897ZM10.9691 4.6732C10.9718 4.65909 10.9737 4.64474 10.9746 4.63017C11.1896 2.94215 11.5597 1.76156 11.9048 0.972516C11.9784 0.804376 12.0416 0.737298 12.0711 0.71297C12.1003 0.740251 12.1483 0.80686 12.1816 0.917579C12.4744 1.89366 12.7881 3.23231 12.9907 4.9252C12.9432 4.78443 12.8953 4.6492 12.8477 4.52099C12.7179 4.17192 12.4399 3.9411 12.1221 3.91865C11.9284 3.90454 11.5599 3.96065 11.2739 4.48813C11.1383 4.73821 11.0145 5.0032 10.902 5.2821C10.9221 5.0721 10.9446 4.86942 10.9691 4.6732ZM13.1089 13.1719H10.995C10.8318 12.0157 10.3525 7.6626 11.892 4.82334C11.9842 4.65342 12.0598 4.61999 12.0723 4.61999C12.0724 4.61999 12.0726 4.61999 12.0727 4.62004C12.0913 4.62131 12.1513 4.66523 12.1888 4.76596C12.6261 5.94266 13.079 7.6775 13.186 9.96744C13.1859 9.97086 13.1858 9.97419 13.1857 9.97761C13.1856 9.98173 13.1855 9.98591 13.1855 9.99003V9.99097C13.1855 10.008 13.1871 10.0245 13.1894 10.0408C13.2305 10.9902 13.2124 12.0335 13.1089 13.1719ZM13.704 4.97095C13.754 4.18181 13.8091 3.51984 13.8564 3.01584C14.2597 3.89315 14.6034 4.95224 14.8815 6.17441C14.4641 7.12963 14.1364 8.2565 13.9015 9.5457C13.9414 7.81855 13.8562 6.29244 13.704 4.97095ZM14.9297 23.2969H9.07031V22.5938H14.9297V23.2969Z" fill="white"/>
</g>
<defs>
<clipPath id="clip0_201_614">
<rect width="24" height="24" fill="white"/>
</clipPath>
</defs>
</svg>
