<svg width="24" height="24" viewBox="0 0 24 24" fill="none" xmlns="http://www.w3.org/2000/svg">
<path fill-rule="evenodd" clip-rule="evenodd" d="M11.4764 1.3H11.5237C11.9656 1.3 12.2116 1.29999 12.4232 1.30923C17.4479 1.52862 21.4714 5.55218 21.6908 10.5769C21.7001 10.7885 21.7001 11.0344 21.7001 11.4764V11.5236C21.7001 11.9656 21.7001 12.2115 21.6908 12.4231C21.4714 17.4478 17.4479 21.4714 12.4232 21.6908C12.2116 21.7 11.9656 21.7 11.5237 21.7H11.4764C11.0345 21.7 10.7885 21.7 10.5769 21.6908C5.55223 21.4714 1.52867 17.4478 1.30928 12.4231C1.30004 12.2116 1.30005 11.9656 1.30005 11.5236V11.4764C1.30005 11.0344 1.30004 10.7884 1.30928 10.5769C1.52867 5.55218 5.55223 1.52862 10.5769 1.30923C10.7885 1.29999 11.0345 1.3 11.4764 1.3ZM11.5 2.7C11.0284 2.7 10.8151 2.70017 10.638 2.7079C6.33851 2.89562 2.89567 6.33846 2.70795 10.638C2.70022 10.815 2.70005 11.0284 2.70005 11.5C2.70005 11.9716 2.70022 12.185 2.70795 12.362C2.89567 16.6615 6.33851 20.1044 10.638 20.2921C10.8151 20.2998 11.0284 20.3 11.5 20.3C11.9717 20.3 12.185 20.2998 12.3621 20.2921C16.6616 20.1044 20.1044 16.6615 20.2922 12.362C20.2999 12.185 20.3 11.9716 20.3 11.5C20.3 11.0284 20.2999 10.815 20.2922 10.638C20.1044 6.33846 16.6616 2.89562 12.3621 2.7079C12.185 2.70017 11.9717 2.7 11.5 2.7Z" fill="#848484"/>
<path fill-rule="evenodd" clip-rule="evenodd" d="M17.495 18.505C17.7684 18.2317 18.2116 18.2317 18.485 18.505L21.0305 21.0506C21.3039 21.324 21.3039 21.7672 21.0305 22.0406C20.7572 22.3139 20.314 22.3139 20.0406 22.0406L17.495 19.495C17.2216 19.2216 17.2216 18.7784 17.495 18.505Z" fill="#848484"/>
</svg>
