<svg width="21" height="22" viewBox="0 0 21 22" fill="none" xmlns="http://www.w3.org/2000/svg">
<path fill-rule="evenodd" clip-rule="evenodd" d="M10.4764 0.299999H10.5237C10.9656 0.299997 11.2116 0.299995 11.4232 0.309232C16.4479 0.528615 20.4714 4.55218 20.6908 9.57689C20.7001 9.78845 20.7001 10.0344 20.7001 10.4764V10.5236C20.7001 10.9656 20.7001 11.2115 20.6908 11.4231C20.4714 16.4478 16.4479 20.4714 11.4232 20.6908C11.2116 20.7 10.9656 20.7 10.5237 20.7H10.4764C10.0345 20.7 9.7885 20.7 9.57694 20.6908C4.55223 20.4714 0.528665 16.4478 0.309281 11.4231C0.300045 11.2116 0.300046 10.9656 0.300049 10.5236V10.4764C0.300046 10.0344 0.300045 9.78845 0.309281 9.57689C0.528665 4.55218 4.55223 0.528615 9.57694 0.309232C9.7885 0.299995 10.0345 0.299997 10.4764 0.299999ZM10.5 1.7C10.0284 1.7 9.81509 1.70017 9.63801 1.7079C5.33851 1.89562 1.89567 5.33846 1.70795 9.63796C1.70022 9.81505 1.70005 10.0284 1.70005 10.5C1.70005 10.9716 1.70022 11.185 1.70795 11.362C1.89567 15.6615 5.33851 19.1044 9.63801 19.2921C9.81509 19.2998 10.0284 19.3 10.5 19.3C10.9717 19.3 11.185 19.2998 11.3621 19.2921C15.6616 19.1044 19.1044 15.6615 19.2922 11.362C19.2999 11.185 19.3 10.9716 19.3 10.5C19.3 10.0284 19.2999 9.81505 19.2922 9.63796C19.1044 5.33846 15.6616 1.89562 11.3621 1.7079C11.185 1.70017 10.9717 1.7 10.5 1.7Z" fill="#848484"/>
<path fill-rule="evenodd" clip-rule="evenodd" d="M16.495 17.505C16.7684 17.2317 17.2116 17.2317 17.485 17.505L20.0305 20.0506C20.3039 20.324 20.3039 20.7672 20.0305 21.0406C19.7572 21.3139 19.314 21.3139 19.0406 21.0406L16.495 18.495C16.2216 18.2216 16.2216 17.7784 16.495 17.505Z" fill="#848484"/>
</svg>
