<svg width="24" height="24" viewBox="0 0 24 24" fill="none" xmlns="http://www.w3.org/2000/svg">
<path fill-rule="evenodd" clip-rule="evenodd" d="M16.0849 4.92459L14.8599 4.23028C13.2129 3.29675 12.7397 3.06051 12.2676 3.01165C12.0896 2.99323 11.9102 2.99323 11.7323 3.01165C11.2602 3.06051 10.787 3.29675 9.13995 4.23028L7.91495 4.92461L6.70115 5.63832C5.06919 6.59791 4.62797 6.88964 4.34963 7.27402C4.2447 7.41893 4.155 7.57429 4.08197 7.73763C3.88825 8.17087 3.85622 8.69884 3.84117 10.592L3.82998 12L3.84117 13.408C3.85622 15.3011 3.88825 15.8291 4.08197 16.2624C4.155 16.4257 4.2447 16.5811 4.34963 16.726C4.62797 17.1103 5.06919 17.4021 6.70115 18.3617L7.9149 19.0753L9.13995 19.7697C10.787 20.7032 11.2602 20.9395 11.7323 20.9883C11.9102 21.0068 12.0896 21.0068 12.2676 20.9883C12.7397 20.9395 13.2129 20.7032 14.8599 19.7697L16.0849 19.0754L17.2987 18.3617C18.9307 17.4021 19.3719 17.1103 19.6502 16.726C19.7552 16.5811 19.8449 16.4257 19.9179 16.2624C20.1116 15.8291 20.1436 15.3011 20.1587 13.408L20.1699 12L20.1587 10.5919C20.1436 8.69884 20.1116 8.17087 19.9179 7.73763C19.8449 7.57429 19.7552 7.41893 19.6502 7.27402C19.3719 6.88964 18.9307 6.59791 17.2987 5.63832L16.0849 4.92459ZM16.7849 3.71213L15.5503 3.01231C14.0129 2.14094 13.2442 1.70525 12.4117 1.61909C12.1379 1.59076 11.8619 1.59076 11.5881 1.61909C10.7556 1.70525 9.98697 2.14094 8.44961 3.01232L7.21493 3.71213L5.99153 4.43149C4.46822 5.32719 3.70657 5.77504 3.2157 6.45292C3.05426 6.67587 2.91627 6.91488 2.80391 7.16616C2.46228 7.9302 2.45526 8.81374 2.44121 10.5808L2.42993 12L2.44121 13.4192C2.45526 15.1862 2.46228 16.0698 2.80391 16.8338C2.91627 17.0851 3.05426 17.3241 3.2157 17.5471C3.70657 18.2249 4.46822 18.6728 5.99154 19.5685L7.21493 20.2879L8.44961 20.9877C9.98697 21.859 10.7556 22.2947 11.5881 22.3809C11.8619 22.4092 12.1379 22.4092 12.4117 22.3809C13.2442 22.2947 14.0129 21.859 15.5503 20.9877L16.7849 20.2879L18.0083 19.5685C19.5316 18.6728 20.2933 18.2249 20.7842 17.5471C20.9456 17.3241 21.0836 17.0851 21.1959 16.8338C21.5376 16.0698 21.5446 15.1862 21.5586 13.4192L21.5699 12L21.5586 10.5808C21.5446 8.81374 21.5376 7.9302 21.1959 7.16616C21.0836 6.91488 20.9456 6.67587 20.7842 6.45292C20.2933 5.77504 19.5316 5.32719 18.0083 4.43148L16.7849 3.71213Z" fill="#707070"/>
<path fill-rule="evenodd" clip-rule="evenodd" d="M13.04 10.1987C12.3939 9.83696 11.6061 9.83696 10.9601 10.1987C10.3237 10.5774 9.92983 11.2596 9.92009 12C9.92983 12.7404 10.3237 13.4226 10.9601 13.8013C11.6061 14.163 12.3939 14.163 13.04 13.8013C13.6763 13.4226 14.0702 12.7404 14.0799 12C14.0702 11.2596 13.6763 10.5774 13.04 10.1987ZM8.52002 12C8.52988 13.2406 9.19054 14.3849 10.26 15.0138C11.3394 15.6255 12.6607 15.6255 13.74 15.0138C14.8095 14.3849 15.4702 13.2406 15.48 12C15.4702 10.7594 14.8095 9.61508 13.74 8.98623C12.6607 8.37446 11.3394 8.37446 10.26 8.98623C9.19054 9.61508 8.52988 10.7594 8.52002 12Z" fill="#707070"/>
</svg>
