<svg width="24" height="24" viewBox="0 0 24 24" fill="none" xmlns="http://www.w3.org/2000/svg">
<g clip-path="url(#clip0_201_618)">
<path d="M22.8225 14.6026L23.4707 13.1312C23.9376 12.0716 23.4528 10.8361 22.388 10.3716C22.3003 10.3333 22.2114 10.3021 22.1219 10.2765C21.1238 9.99094 20.043 10.4766 19.6147 11.4489L19.3684 12.0079L18.6025 13.7461C18.4162 14.1691 17.9957 14.4425 17.5314 14.4425H6.46856C6.00431 14.4425 5.58384 14.1691 5.39742 13.7461L4.63088 12.0062L4.38534 11.4489C3.95691 10.4766 2.87597 9.9908 1.8781 10.2765C1.78856 10.3021 1.69964 10.3333 1.61203 10.3716C0.547173 10.8361 0.0623922 12.0716 0.529267 13.1312L1.5413 15.4283C2.40844 17.3964 4.36008 18.6322 6.46856 18.6322C7.80675 18.6322 16.1751 18.6322 17.5314 18.6322C19.1946 18.6322 20.73 17.8686 21.7314 16.6239" stroke="white" stroke-miterlimit="10" stroke-linecap="round" stroke-linejoin="round"/>
<path d="M4.63086 12.0062C6.93889 10.7055 9.82109 10.9068 11.951 12.6107C14.0819 10.9061 17.0419 10.7054 19.3684 12.008" stroke="white" stroke-miterlimit="10" stroke-linecap="round" stroke-linejoin="round"/>
<path d="M11.9509 12.6117V12.6107V12.6117Z" stroke="white" stroke-miterlimit="10" stroke-linecap="round" stroke-linejoin="round"/>
<path d="M11.9509 12.6107C11.6544 13.1853 11.6544 13.8679 11.9509 14.4425" stroke="white" stroke-miterlimit="10" stroke-linecap="round" stroke-linejoin="round"/>
<path d="M3.74956 7.24284C3.95853 7.24284 4.12859 7.00983 4.2125 6.68826C4.32251 6.26662 4.64768 5.94084 5.06932 5.83092C5.3914 5.74697 5.62456 5.57653 5.62456 5.36784C5.62456 5.3078 5.60482 5.25112 5.56986 5.19872C5.48304 5.06845 5.29957 4.96495 5.07078 4.90519C4.64914 4.79503 4.3227 4.47051 4.21287 4.04878C4.12887 3.72619 3.95811 3.49289 3.74951 3.49289C3.54054 3.49289 3.37048 3.72591 3.28657 4.04747C3.17656 4.46911 2.85139 4.79489 2.42975 4.90481C2.10767 4.98876 1.87451 5.1592 1.87451 5.36789C1.87451 5.57676 2.10757 5.74701 2.42937 5.83092C2.73457 5.91051 2.98911 6.10336 3.14825 6.36356C3.20881 6.46256 3.25596 6.57098 3.2862 6.68709C3.37025 7.00959 3.54096 7.24284 3.74956 7.24284Z" stroke="white" stroke-miterlimit="10" stroke-linecap="round" stroke-linejoin="round"/>
<path d="M23.1638 14.7612C22.8078 14.6683 22.5119 14.391 22.4132 14.0119C22.3397 13.7296 22.1903 13.5255 22.0078 13.5255C21.825 13.5255 21.6761 13.7294 21.6027 14.0107C21.5064 14.3796 21.222 14.6647 20.853 14.7608C20.5712 14.8343 20.3672 14.9835 20.3672 15.1661C20.3672 15.3488 20.5711 15.4978 20.8527 15.5713C21.2213 15.6674 21.5064 15.9517 21.6024 16.3204C21.6332 16.4384 21.6773 16.5424 21.7314 16.6239C21.9327 16.9268 22.2703 16.868 22.4129 16.3215C22.5091 15.9525 22.7937 15.6675 23.1626 15.5713C23.4444 15.4979 23.6484 15.3487 23.6484 15.1661C23.6483 14.983 23.4446 14.8346 23.1638 14.7612Z" stroke="white" stroke-miterlimit="10" stroke-linecap="round" stroke-linejoin="round"/>
<path d="M11.9509 6.26062V10.8763" stroke="white" stroke-miterlimit="10" stroke-linecap="round" stroke-linejoin="round"/>
<path d="M3.14839 6.36353C2.96216 6.50092 2.79224 6.64501 2.64102 6.79623C2.04224 7.39501 1.86064 8.75635 1.87808 10.2765" stroke="white" stroke-miterlimit="10" stroke-linecap="round" stroke-linejoin="round"/>
<path d="M22.122 10.2765C22.1395 8.7564 21.9579 7.39501 21.3591 6.79623C20.486 5.92318 19.0009 5.28048 17.2268 4.86812C15.3611 4.43452 13.3526 4.95498 11.9511 6.26063C10.5497 4.95498 8.63912 4.43448 6.77344 4.86812C6.35471 4.96543 5.95233 5.07573 5.57007 5.19873" stroke="white" stroke-miterlimit="10" stroke-linecap="round" stroke-linejoin="round"/>
<path d="M18.2117 18.7665L19.417 20.2557C19.5925 20.4724 19.8916 20.5666 20.1695 20.4682C20.4473 20.3698 20.6202 20.1084 20.6202 19.8295V17.8198" stroke="white" stroke-miterlimit="10" stroke-linecap="round" stroke-linejoin="round"/>
<path d="M3.37915 17.8198V19.8295C3.37915 20.1084 3.55207 20.3698 3.82995 20.4682C4.10782 20.5666 4.40688 20.4724 4.58243 20.2557L5.78773 18.7665" stroke="white" stroke-miterlimit="10" stroke-linecap="round" stroke-linejoin="round"/>
</g>
<defs>
<clipPath id="clip0_201_618">
<rect width="24" height="24" fill="white"/>
</clipPath>
</defs>
</svg>
