<svg width="24" height="24" viewBox="0 0 24 24" fill="none" xmlns="http://www.w3.org/2000/svg">
<path d="M17.5648 0.821016C17.4796 0.345281 17.0669 0 16.5836 0H7.41551C6.93213 0 6.51954 0.345281 6.43432 0.820969L5.5728 5.63006C5.53858 5.82117 5.66576 6.00384 5.85691 6.03811C6.04779 6.07247 6.23074 5.9452 6.26496 5.75405L7.12647 0.944953C7.15155 0.804844 7.2731 0.703125 7.41551 0.703125H16.5836C16.726 0.703125 16.8476 0.804797 16.8726 0.945C19.0108 12.8802 18.8959 12.2247 18.8959 12.266C18.8959 12.4271 18.7641 12.5582 18.6022 12.5582C18.2324 12.5582 5.74305 12.5582 5.39688 12.5582C5.21646 12.5582 5.07485 12.396 5.1079 12.2128L5.97565 7.36894C6.00987 7.17783 5.88269 6.99516 5.69154 6.96089C5.50066 6.92662 5.31771 7.0538 5.28349 7.24495C4.34599 12.4786 4.39999 12.1389 4.39999 12.2659C4.39999 12.8148 4.84722 13.2613 5.39693 13.2613H9.72213C9.67929 13.3772 9.6558 13.5024 9.6558 13.633C9.6558 13.8007 9.69443 13.9594 9.76319 14.101C7.81282 14.8459 6.53683 16.5019 6.53683 18.3605C6.53683 19.9434 7.46351 21.3967 8.9876 22.2557C8.84965 22.4382 8.76766 22.6652 8.76766 22.9111C8.76766 23.5116 9.25615 24 9.85657 24H14.1425C14.743 24 15.2314 23.5115 15.2314 22.9111C15.2314 22.665 15.1493 22.4378 15.0111 22.2553C15.2837 22.1012 15.5206 21.9389 15.7367 21.7659C15.8882 21.6445 15.9127 21.4233 15.7913 21.2717C15.6699 21.1202 15.4486 21.0958 15.2971 21.2172C14.9947 21.4597 14.6621 21.6618 14.3183 21.8222C13.8415 21.8222 10.2138 21.8222 9.68069 21.8222C8.1731 21.1195 7.23991 19.7991 7.23991 18.3605C7.23991 16.695 8.48627 15.2132 10.3545 14.6399C10.6307 14.7434 10.6144 14.7079 13.2684 14.7079C13.4029 14.7079 13.5352 14.6818 13.6445 14.6399C14.3595 14.8593 14.9829 15.2121 15.4806 15.6569V18.6245C15.4806 18.8187 15.638 18.9761 15.8322 18.9761C16.0264 18.9761 16.1838 18.8187 16.1838 18.6245V16.47C16.5534 17.0374 16.7591 17.6838 16.7591 18.3605C16.7591 18.9648 16.5996 19.545 16.2852 20.085C16.1875 20.2528 16.2443 20.468 16.4121 20.5657C16.5802 20.6635 16.7952 20.6064 16.8928 20.4388C17.2706 19.7899 17.4622 19.0907 17.4622 18.3604C17.4622 17.2311 16.9909 16.1764 16.1838 15.3554V13.2613H18.6021C19.1518 13.2613 19.599 12.8148 19.599 12.2659C19.5991 12.1335 19.725 12.8797 17.5648 0.821016ZM14.1425 22.5253C14.3553 22.5253 14.5283 22.6983 14.5283 22.911C14.5283 23.1238 14.3553 23.2968 14.1425 23.2968H9.85657C9.64385 23.2968 9.47079 23.1238 9.47079 22.911C9.47079 22.6983 9.64385 22.5253 9.85657 22.5253H14.1425ZM10.5515 13.9586C10.4368 13.8952 10.3589 13.7731 10.3589 13.6331C10.3589 13.4281 10.5257 13.2614 10.7306 13.2614H13.2685C13.4734 13.2614 13.6402 13.4281 13.6402 13.6331C13.6402 13.8387 13.4724 14.0048 13.2685 14.0048C10.5347 14.0048 10.6707 14.0244 10.5515 13.9586ZM15.4807 14.7605C15.1074 14.4972 14.69 14.2745 14.236 14.101C14.3047 13.9595 14.3434 13.8007 14.3434 13.6331C14.3434 13.5025 14.3199 13.3773 14.277 13.2614H15.4807V14.7605Z" fill="white"/>
</svg>
